<svg width="50" height="50" viewBox="0 0 50 50" fill="none" xmlns="http://www.w3.org/2000/svg">
<path fill-rule="evenodd" clip-rule="evenodd" d="M49.9594 23.7441C49.6224 10.5535 38.787 9.92164e-07 25.4395 9.92164e-07C12.2597 9.92164e-07 1.50672 10.3019 0.961991 23.2837C0.919647 23.6183 0.919649 23.9953 0.919649 24.3299C0.919649 28.9363 2.21685 33.2496 4.43547 36.9343L0 50L13.5975 45.6871C17.1129 47.6131 21.1708 48.7013 25.4395 48.7013C38.996 48.7013 50 37.8141 50 24.3299C50 24.1211 49.9594 23.9529 49.9594 23.7441ZM36.6945 29.2714C36.0673 28.9783 33.1385 27.5127 32.5947 27.3039C32.0076 27.1361 31.6323 27.0103 31.2141 27.6385C30.8366 28.2247 29.6664 29.5654 29.3303 29.941C28.9532 30.3604 28.6197 30.4023 28.0335 30.1088C27.405 29.8157 25.4806 29.1875 23.1803 27.1361C21.3803 25.5452 20.1674 23.6183 19.8321 23.0321C19.4969 22.4035 19.7898 22.1104 20.0835 21.7762C20.376 21.5246 20.7112 21.1061 21.0028 20.7287C21.087 20.6452 21.1708 20.5609 21.2123 20.4775C21.3803 20.2263 21.4632 20.017 21.5898 19.7654C21.7989 19.3474 21.7155 19.0119 21.5488 18.7192C21.4209 18.4261 20.2097 15.4526 19.706 14.2801C19.2049 13.0662 18.7025 13.275 18.3669 13.275C17.9906 13.275 17.6144 13.233 17.1967 13.233C16.7772 13.233 16.1505 13.3588 15.6066 13.987C15.02 14.5728 13.4714 15.9969 13.4714 18.9699C13.4714 19.64 13.5975 20.3516 13.8083 20.9803C14.3928 23.1159 15.7323 24.8327 15.941 25.1258C16.2338 25.5452 20.0835 31.7421 26.192 34.1298C32.3428 36.5163 32.3428 35.7203 33.4305 35.6369C34.5191 35.5526 36.9874 34.2133 37.4902 32.7892C37.9917 31.407 37.9917 30.1927 37.8245 29.941C37.6988 29.7327 37.2811 29.5654 36.6945 29.2714ZM25.4395 44.8493C21.2542 44.8493 17.3634 43.593 14.0999 41.4577L6.19228 43.9699L8.74346 36.3481C6.27608 32.9984 4.81171 28.8114 4.81171 24.3299C4.81171 23.6602 4.85273 23.0321 4.93654 22.3615C5.94175 11.9767 14.7686 3.85332 25.4395 3.85332C36.2763 3.85332 45.1892 12.1864 46.025 22.739C46.0674 23.2837 46.0674 23.8276 46.0674 24.3299C46.0674 35.6369 36.8202 44.8493 25.4395 44.8493Z" fill="#007F30"/>
</svg>
